<?xml version="1.0" encoding="utf-8"?>
<!-- Generator: Adobe Illustrator 19.0.0, SVG Export Plug-In . SVG Version: 6.00 Build 0)  -->
<svg version="1.1" id="Layer_1" xmlns="http://www.w3.org/2000/svg" xmlns:xlink="http://www.w3.org/1999/xlink" x="0px" y="0px"
	 viewBox="131 -131 512 512" style="enable-background:new 131 -131 512 512;" xml:space="preserve">
<g id="XMLID_2_">
	<path id="XMLID_7_" d="M387.5-113.8L643-11.6v34.4h-34.4c0,4.6-1.9,8.4-5.6,12.1s-8.4,4.6-13,4.6H184c-4.6,0-9.3-1.9-13-4.6
		c-3.7-2.8-5.6-7.4-5.6-12.1H131v-34.4L387.5-113.8z M199.8,57.2h67.8v204.4H302V57.2h67.8v204.4h34.4V57.2H472v204.4h34.4V57.2
		h67.8v204.4H590c4.6,0,9.3,1.9,13,4.6c3.7,2.8,5.6,7.4,5.6,12.1V295H166.3v-16.7c0-4.6,1.9-8.4,5.6-12.1c3.7-3.7,8.4-4.6,13-4.6
		h15.8V57.2H199.8z M624.4,312.7c4.6,0,9.3,1.9,13,4.6c3.7,3.7,5.6,7.4,5.6,12.1v34.4H131.9v-34.4c0-4.6,1.9-8.4,5.6-12.1
		s8.4-4.6,13-4.6H624.4z"/>
</g>
</svg>
