<svg xmlns="http://www.w3.org/2000/svg" width="120" height="106.6" viewBox="0 0 120 106.6"><title>BLK_icn_people_rgb</title><path d="M82.25,100.08C75.9,99,75,97.77,75.15,93.37c.23-8.69.54-34.43.54-38.55,0-9.24,9.79-13.3,22.94-13.68s21.37,2.8,21.37,11c0,5-.29,32.11-.48,41.1-.1,4.19.32,6.68-3.87,6.75C115.65,100,88.6,101.14,82.25,100.08Z" transform="translate(0 -6.7)" fill="#fc9bb3"/><path d="M12.84,11.67c-3.37,2.69-5.5,3.77-6.36,9.85S11.1,36.6,18.16,37.61c5.05,1,11.23,0,15.43-7,2.86-4.93,3.26-11.09-.93-16a13.35,13.35,0,0,0-1.37-1.58,14.79,14.79,0,0,0-4.95-3.2A14.73,14.73,0,0,0,12.84,11.67Z" transform="translate(0 -6.7)" fill="#fc9bb3"/><path d="M3.28,100.16C.37,99,.66,98.44.34,94.59,0,90,.53,80.67,0,59.7a21.14,21.14,0,0,1,.28-3.45c1.83-11,12.4-16.4,25.38-15.27a21.67,21.67,0,0,1,3,.12c9.14,1,19.44,7.81,16.1,18.63,0,.94-.09,1.93-.12,3-.07,2.14-.15,27.48-.21,30.48-.09,4.19.33,6.68-3.86,6.75l-2,.08c-9.31.83-17.57.21-27.26.44C5.84,100.38,4.2,100.52,3.28,100.16Z" transform="translate(0 -6.7)" fill="#ffce00"/><path d="M50.52,10.07c-7.66,6.13-10.94,15.32-5.84,24.07C51.62,46,68,45.81,74.59,36.33s5.11-20.42-2.92-26.26S54.17,7.15,50.52,10.07Z" transform="translate(0 -6.7)" fill="#ffce00"/><path d="M91,11.67c-4,3.24-6.55,7.55-6.57,12.11a11.79,11.79,0,0,0,.49,3.45c2.9,6.86,9.56,12,17,10.55,4.44-.73,7-3.1,9.45-6.75a32.15,32.15,0,0,0,1.56-4.09,13.7,13.7,0,0,0-5.15-15.27,14,14,0,0,0-3.25-1.77A14.73,14.73,0,0,0,91,11.67Z" transform="translate(0 -6.7)" fill="#ff4713"/><path d="M34.52,113.21c-4.36,0-3-5-3-9.37v-42c0-11.67,15.32-13.1,29.9-13.1s27,3.54,27,13.86l-.74,39.74c0,4.36.83,10.85-2.13,10.85,0,0-14.48-.2-26.44,0S34.52,113.21,34.52,113.21Z" transform="translate(0 -6.7)" fill="#ff4713"/></svg>