<svg width="42" height="95" viewBox="0 0 42 95" fill="none" xmlns="http://www.w3.org/2000/svg">
<g clip-path="url(#clip0)">
<path d="M22.0755 0.98492C22.1203 0.940151 22.1651 0.895382 22.2099 0.850613C22.6576 0.626767 23.0606 0.402922 23.374 0C23.6875 0 24.0009 0 24.3143 0C25.6128 0.940151 26.0606 2.23845 25.9263 3.80537C25.8367 5.05891 25.7919 6.31244 25.7024 7.61074C25.389 12.3115 25.0308 16.9675 24.7173 21.6682C24.6725 22.295 24.7621 22.9218 24.986 23.5485C25.0755 23.8172 25.1651 24.0858 25.5233 23.9515C25.6576 23.9515 25.8367 23.9515 25.9711 23.9515C26.7322 23.8619 26.777 23.1904 26.9561 22.6532C28.0755 19.0269 28.7472 15.2663 29.5979 11.5952C30.0009 9.80443 30.3143 7.92413 31.3442 6.31244C31.7919 5.59614 32.374 4.9246 33.3143 5.19321C34.2099 5.46183 34.2994 6.31244 34.389 7.07352C34.5233 9.04336 34.2099 10.9237 33.7621 12.8487C32.8218 16.8332 31.8367 20.8176 30.8964 24.8021C30.6725 25.7422 30.583 26.7271 30.4934 27.6673C30.4487 27.9807 30.583 28.3836 30.9412 28.5179C31.3442 28.6522 31.5681 28.3388 31.7472 28.0702C32.1054 27.5778 32.4188 27.0853 32.6875 26.5481C34.3442 23.2799 35.9561 20.0118 37.8367 16.8779C38.3293 16.0721 38.8666 15.3558 39.6725 14.7738C40.2099 14.3709 40.7472 14.2366 41.3293 14.5052C41.9114 14.7738 41.9561 15.3558 42.0009 15.9378C42.0009 17.1018 41.6875 18.1315 41.2397 19.1612C38.6875 25.1602 35.6427 30.9354 31.9711 36.3077C27.3591 43.0679 23.8218 50.3652 22.4785 58.5132C21.4039 65.0495 20.9113 71.6305 20.6875 78.2116C20.4636 83.8077 20.5979 89.4039 20.8218 95C16.4785 95 12.18 95 7.83672 95C7.92627 93.7912 8.01583 92.6272 8.15016 91.4185C8.64269 86.4491 9.09045 81.4797 9.62777 76.5104C10.1203 71.6753 10.7024 66.885 10.8367 62.05C11.0158 55.9166 10.4337 49.8728 8.64269 43.9185C6.89642 38.0985 4.52329 32.5024 2.15016 26.951C1.20986 24.8468 0.000901373 22.8322 0.000901373 20.4147C0.000901373 19.6984 -0.133427 18.8926 0.717319 18.5792C1.52329 18.221 2.0606 18.8478 2.55314 19.3402C2.77702 19.5641 3.0009 19.8327 3.22478 20.1013C4.07553 21.2653 4.92627 22.4741 5.8218 23.5933C6.53821 24.5335 7.16508 25.5632 8.23971 26.1451C8.77702 26.9062 9.53821 27.3539 10.4337 27.0853C11.3293 26.8167 11.5531 25.9661 11.6427 25.1155C11.6875 24.623 11.6875 24.0858 11.6427 23.5485C11.2845 18.1762 10.9263 12.8487 10.5233 7.52121C10.4337 6.35721 10.5233 5.19321 10.8367 4.07399C11.0158 3.35768 11.4188 2.73091 12.2248 2.59661C13.0308 2.4623 13.5681 2.95476 13.9711 3.53676C14.3293 4.07399 14.6427 4.61122 14.7322 5.23798C15.18 8.23751 15.583 11.2818 16.0308 14.2813C16.3442 16.475 16.6128 18.6239 16.9711 20.8176C17.0606 21.4444 17.2397 22.3398 18.0009 22.3845C18.8069 22.4293 18.8964 21.5787 18.986 20.9967C19.6128 18.0867 19.8367 15.132 20.1949 12.1772C20.7322 8.41659 20.6427 4.56645 22.0755 0.98492ZM15.6725 26.7719C15.4039 26.8167 15.2696 26.9958 15.2248 27.2196C14.6427 27.4435 14.5531 28.0254 14.2845 28.5179C13.7472 28.8313 13.8815 29.4133 13.8367 29.861C12.8069 31.6517 12.6725 33.532 13.2994 35.5019C13.5233 36.845 14.0606 38.009 15.1352 38.9043C15.4487 39.5311 16.0308 39.4863 16.6128 39.4863C16.6128 40.0236 16.9263 40.2922 17.4188 40.3369C18.8069 40.5608 20.1949 40.5608 21.583 40.2922C21.8069 40.2922 21.986 40.1579 22.1651 39.9788C22.2994 39.9788 22.4337 39.934 22.5681 39.934C22.8815 39.934 23.1054 39.755 23.2845 39.5311C23.5531 39.352 23.7322 39.1282 23.8218 38.8148C24.4934 39.0834 24.6278 38.6805 24.6278 38.1433C24.8516 38.188 24.986 38.0985 25.1651 37.9642C26.0158 37.2927 26.374 36.3525 26.5084 35.278C26.777 35.099 26.8666 34.8303 26.8666 34.5617C27.0457 34.2931 27.0457 33.9797 27.0457 33.6664C27.0457 32.7262 27.0457 31.7413 27.0457 30.8011C27.0009 30.5773 26.9113 30.3534 26.8666 30.1296C26.8666 29.7714 26.8218 29.4133 26.4636 29.1894C26.4636 28.4284 25.9711 27.9359 25.5233 27.3987C24.9412 26.2347 23.8666 25.6079 22.7472 25.1155C21.1352 24.3992 17.6427 24.6678 16.7024 26.0556C16.6576 26.0556 16.6128 26.0556 16.5681 26.1004C16.1203 26.1004 15.7621 26.2347 15.6725 26.7719Z" fill="#F94613"/>
<path d="M22.6125 39.9788C22.4782 39.9788 22.3438 40.0236 22.2095 40.0236C21.9408 40.0236 21.7617 40.1131 21.6274 40.3369C20.2393 40.6056 18.8513 40.5608 17.4632 40.3817C17.2841 39.7997 17.6423 39.6206 18.1349 39.5311C18.314 39.5759 18.5379 39.5311 18.6722 39.6206C19.0752 39.9788 19.4782 40.1131 19.702 39.5311C19.8811 38.9939 19.3438 38.8596 18.9856 38.77C18.2244 38.5909 17.508 38.2776 16.8364 37.9642C15.8961 36.9345 15.2692 35.681 14.8662 34.3827C14.8662 33.4873 14.8662 32.5919 14.8662 31.6965C15.4483 30.0401 16.0752 28.3836 17.3737 27.1301C17.4184 27.0853 17.4185 26.9062 17.4185 26.8167C17.3737 26.5033 17.2393 26.2795 16.9707 26.1004C17.7319 25.9213 18.3587 25.1155 19.2095 25.6527C19.1647 25.6975 19.1647 25.7422 19.1647 25.787C18.9408 25.8318 18.7617 25.8765 18.5379 25.8765C18.3587 26.0108 18.4035 26.1451 18.5826 26.2347C18.8513 26.2347 19.1647 26.2347 19.4334 26.2347C20.3289 26.2347 21.2244 26.2347 22.1199 26.2347C23.4632 26.951 24.5826 27.8016 25.2543 29.279C25.4782 29.7267 25.3438 30.3534 25.8364 30.6668C25.9707 31.7413 25.9707 32.8157 25.8364 33.8902C25.7468 33.9797 25.6573 34.0245 25.6125 34.114C25.0304 36.3973 23.911 38.188 21.4035 38.7253C21.0901 38.8148 20.5528 39.0834 21.2244 39.5311C21.6274 39.7102 21.9856 39.7549 22.3438 39.4416C22.8364 39.2625 23.3289 39.0386 23.8214 38.8596C23.7319 39.1729 23.5528 39.3968 23.2841 39.5759C22.9707 39.5311 22.7916 39.7102 22.6125 39.9788ZM22.8811 31.1593C22.8364 30.7116 22.8811 30.2639 22.7916 29.8162C22.6125 29.0999 22.3886 28.2941 21.5379 28.115C20.1946 27.8464 19.0304 28.2045 18.1796 29.3238C17.3737 30.3534 17.2393 31.3831 17.9558 32.5024C18.3587 33.0844 18.4931 33.7111 18.0901 34.3827C17.8214 34.8303 17.9558 35.2333 18.3587 35.5467C18.8513 35.9048 19.299 36.263 19.7916 36.5763C20.4184 36.9793 20.8662 36.8002 20.911 35.9943C20.9558 35.5019 20.9558 35.0094 21.1796 34.6065C22.299 34.6513 22.9707 34.2931 22.7916 33.0396C22.7468 32.7262 22.8364 32.368 23.0155 32.0994C23.2841 31.7413 23.2841 31.3831 22.8811 31.1593Z" fill="#F9C603"/>
<path d="M23.8207 38.8595C23.3282 39.0386 22.8357 39.2624 22.3431 39.4415C21.9402 39.2624 21.5819 39.1729 21.2237 39.531C20.5521 39.0834 21.0894 38.77 21.4028 38.7252C23.9103 38.1432 24.9849 36.3524 25.6118 34.114C25.6566 34.0244 25.7461 33.9349 25.8357 33.8901C26.3282 33.8901 26.5969 34.2483 26.8207 34.5617C26.8207 34.8751 26.7312 35.1437 26.4178 35.278C26.2387 35.2332 26.0148 35.2332 25.97 35.4571C25.7461 36.3077 25.1193 36.9344 24.761 37.6955C24.6715 37.8298 24.6267 38.0089 24.5372 38.1432C24.2237 38.2327 23.9551 38.4566 23.8207 38.8595Z" fill="#D7640B"/>
<path d="M19.2088 25.6078C18.3133 25.0706 17.6864 25.8765 16.97 26.0555C16.8804 26.0555 16.8356 26.0555 16.7461 26.0555C17.6864 24.6677 21.1342 24.3543 22.7909 25.1154C23.9103 25.6078 24.9849 26.2346 25.567 27.3986C25.567 27.4881 25.567 27.5777 25.5222 27.6672C24.4476 26.9957 23.6416 25.8317 22.164 25.8317C21.9401 25.7869 21.761 25.6974 21.5371 25.6526C21.0446 25.384 20.5968 25.384 20.1043 25.6526C19.7909 25.6078 19.5222 25.6078 19.2088 25.6078Z" fill="#D87B08"/>
<path d="M22.1201 25.787C23.5977 25.787 24.3589 26.9958 25.4783 27.6225C25.6574 28.2045 25.5231 29.0104 26.4186 29.1447C26.7768 29.3685 26.8216 29.7267 26.8216 30.0848C26.5082 30.2639 26.15 30.443 25.8365 30.6221C25.344 30.2639 25.4783 29.6819 25.2544 29.2342C24.5828 27.8016 23.4634 26.9062 22.1201 26.1899C22.1649 26.1004 22.1649 25.9661 22.1201 25.787Z" fill="#D85B0C"/>
<path d="M13.2992 35.5019C12.6723 33.532 12.8066 31.6517 13.8365 29.861C14.0156 29.861 14.1947 29.9057 14.3738 29.9057C13.926 30.2639 13.8813 30.7563 14.1499 31.2488C14.1499 31.3831 14.1499 31.5174 14.1499 31.6517C13.8365 31.786 13.4783 31.8756 13.5678 32.3233C13.6126 32.6366 13.8813 32.7262 14.1499 32.6814C14.1947 32.8157 14.1947 32.9053 14.2395 33.0396C14.0156 33.1291 14.0604 33.3082 14.1499 33.4873C14.1499 33.5768 14.1051 33.6216 14.0156 33.6663C13.8365 33.7111 13.7469 33.8902 13.7022 34.0693C13.8813 34.2483 14.1051 34.4722 14.2843 34.6513C14.2843 34.9199 14.329 35.1885 14.329 35.5019C14.1051 35.5019 13.8813 35.5019 13.6574 35.5019C13.5231 35.4571 13.4335 35.5019 13.2992 35.5019Z" fill="#C9650D"/>
<path d="M13.2988 35.5019C13.3884 35.5019 13.4779 35.5019 13.6123 35.4572C13.657 36.1735 14.0152 36.3973 14.6869 36.3078C15.1346 36.9345 15.5376 37.5613 15.9854 38.1881C15.6272 38.2776 15.3585 38.5462 15.1794 38.8596C14.1048 38.009 13.5227 36.845 13.2988 35.5019Z" fill="#D17C14"/>
<path d="M25.8809 30.6669C26.1943 30.4878 26.5525 30.3087 26.8659 30.1296C26.9107 30.3535 27.0003 30.5773 27.045 30.8012C26.06 30.9355 26.4182 31.7413 26.3734 32.2786C26.3734 32.8158 26.1047 33.5321 27.045 33.6664C27.045 33.9798 27.045 34.2932 26.8659 34.5618C26.5973 34.2484 26.3286 33.8902 25.8809 33.8902C25.9704 32.8158 26.0152 31.7413 25.8809 30.6669Z" fill="#F54D11"/>
<path d="M27.0452 33.6664C26.1049 33.5768 26.3736 32.8158 26.3736 32.2785C26.3736 31.7413 26.0601 30.9355 27.0452 30.8011C27.0452 31.7413 27.0452 32.7262 27.0452 33.6664Z" fill="#C9650D"/>
<path d="M15.1797 38.9043C15.3588 38.5909 15.6274 38.3223 15.9857 38.2328C16.2543 38.4119 16.523 38.5462 16.7916 38.7252C16.8812 38.7252 16.926 38.77 17.0155 38.77C17.0155 38.8596 17.0155 38.9491 17.0155 39.0386C16.926 39.1729 16.7916 39.352 16.7021 39.4863C16.0752 39.4863 15.4931 39.5311 15.1797 38.9043Z" fill="#E7AC0E"/>
<path d="M24.8066 37.6956C25.1649 36.9345 25.7917 36.3077 26.0156 35.4571C26.0604 35.2333 26.2843 35.2333 26.4634 35.278C26.329 36.3525 25.9708 37.2926 25.1201 37.9642C25.0305 37.8746 24.941 37.7851 24.8066 37.6956Z" fill="#D87B08"/>
<path d="M16.746 26.0557C16.8356 26.0557 16.8804 26.0557 16.9699 26.0557C17.2386 26.2347 17.3729 26.4586 17.4177 26.772C16.6565 26.7272 16.2983 27.3987 15.7162 27.6674C15.4475 27.6226 15.358 27.4435 15.2236 27.2197C15.4923 27.1749 15.6266 27.0406 15.6714 26.772C16.1192 26.7272 16.3878 26.4138 16.6117 26.1004C16.6565 26.1004 16.7012 26.0557 16.746 26.0557Z" fill="#EAB927"/>
<path d="M26.4628 29.1894C25.5225 29.0551 25.7016 28.2493 25.5225 27.6673C25.5225 27.5778 25.5225 27.4882 25.5672 27.3987C25.9702 27.9359 26.4628 28.4284 26.4628 29.1894Z" fill="#D7640B"/>
<path d="M15.2245 27.2196C15.3588 27.4434 15.4484 27.6225 15.717 27.6673C15.5379 27.8911 15.314 28.1598 15.1349 28.3836C14.8663 28.4731 14.6424 28.5179 14.3737 28.6074C14.329 28.5627 14.329 28.5627 14.2842 28.5179C14.5528 28.0254 14.6424 27.4434 15.2245 27.2196Z" fill="#D85B0C"/>
<path d="M16.6572 39.4863C16.8363 39.4415 17.0602 39.352 17.2393 39.3072C17.4184 39.3072 17.5527 39.2625 17.7319 39.2625C17.911 39.3072 18.0901 39.3072 18.1796 39.5311C17.6871 39.5758 17.3289 39.7549 17.508 40.3817C16.9707 40.2921 16.6572 40.0235 16.6572 39.4863Z" fill="#E19A04"/>
<path d="M14.3733 29.9058C14.1941 29.9058 14.015 29.861 13.8359 29.861C13.8807 29.3686 13.7464 28.8313 14.2837 28.5179C14.3285 28.5627 14.3285 28.5627 14.3733 28.6075C14.3285 28.9209 14.1046 29.2343 14.5076 29.4581C14.5524 29.5924 14.5524 29.7715 14.3733 29.9058Z" fill="#D85B0C"/>
<path d="M23.8213 38.8595C23.9556 38.4566 24.1795 38.2328 24.6273 38.188C24.6273 38.7252 24.5377 39.1281 23.8213 38.8595Z" fill="#E19A04"/>
<path d="M16.6122 26.1003C16.3883 26.4137 16.1196 26.7271 15.6719 26.7719C15.7614 26.2346 16.1196 26.1003 16.6122 26.1003Z" fill="#D85B0C"/>
<path d="M22.6123 39.9788C22.7466 39.7101 22.9705 39.5311 23.3287 39.5758C23.1496 39.7997 22.9257 39.9788 22.6123 39.9788Z" fill="#E19A04"/>
<path d="M24.8059 37.6956C24.8955 37.7851 25.0298 37.8746 25.1193 37.9642C24.985 38.0985 24.8059 38.2328 24.582 38.1432C24.6716 38.0089 24.7611 37.8746 24.8059 37.6956Z" fill="#E19A04"/>
<path d="M21.6719 40.3369C21.8062 40.1131 21.9853 40.0236 22.254 40.0236C22.0749 40.2026 21.8958 40.3369 21.6719 40.3369Z" fill="#E19A04"/>
<path d="M15.6714 26.772C15.6266 27.0406 15.4923 27.1749 15.2236 27.2197C15.2684 26.951 15.4027 26.8167 15.6714 26.772Z" fill="#D85B0C"/>
<path d="M21.2239 34.6065C21 35.0542 21 35.5466 20.9552 35.9943C20.9105 36.8002 20.4627 36.9793 19.8358 36.5763C19.3433 36.2629 18.8508 35.9048 18.403 35.5466C18 35.2333 17.8209 34.8303 18.1344 34.3826C18.5373 33.7111 18.3582 33.1291 18 32.5023C17.2836 31.3831 17.4179 30.3087 18.2239 29.3237C19.0747 28.2045 20.2836 27.8464 21.5821 28.115C22.4329 28.294 22.6567 29.0551 22.8358 29.8162C22.9254 30.2639 22.9254 30.7116 22.9254 31.1593C22.2985 32.3233 22.5224 33.8006 21.2239 34.6065Z" fill="#F54D11"/>
<path d="M14.3734 29.9057C14.5525 29.7714 14.5525 29.5924 14.5525 29.4133C14.8659 29.1447 15.1793 28.8761 15.1793 28.3836C15.3585 28.1597 15.5823 27.8911 15.7614 27.6673C16.3435 27.4434 16.7017 26.7271 17.4629 26.7719C17.4629 26.8614 17.4629 27.0405 17.4182 27.0853C16.0749 28.3388 15.4928 29.9953 14.9107 31.6517C14.7764 31.3384 14.5077 31.204 14.1943 31.204C13.8808 30.7564 13.9256 30.3087 14.3734 29.9057Z" fill="#D2BC85"/>
<path d="M16.7915 38.6805C16.5228 38.5014 16.2542 38.3671 15.9855 38.188C15.5378 37.5613 15.1348 36.9345 14.687 36.3077C14.6422 35.9496 14.5079 35.681 14.284 35.4571C14.284 35.1885 14.2393 34.9199 14.2393 34.6065C14.4631 34.517 14.6422 34.4274 14.8661 34.3379C15.3139 35.681 15.9407 36.8897 16.8363 37.9194C16.8363 38.2328 16.7915 38.4566 16.7915 38.6805Z" fill="#D8C899"/>
<path d="M14.8662 34.3827C14.6423 34.4723 14.4632 34.5618 14.2393 34.6514C14.0602 34.4723 13.8363 34.2484 13.6572 34.0694C13.7468 33.935 13.8811 33.8007 13.9707 33.6664C14.0154 33.6217 14.0602 33.5769 14.105 33.4874C14.1498 33.353 14.1945 33.174 14.1945 33.0397C14.1498 32.9054 14.1498 32.8158 14.105 32.6815C14.105 32.3234 14.105 32.01 14.105 31.6518C14.105 31.5175 14.105 31.3832 14.105 31.2489C14.4632 31.2489 14.6871 31.3384 14.8214 31.6966C14.8662 32.592 14.8662 33.4874 14.8662 34.3827Z" fill="#ECDB9F"/>
<path d="M16.791 38.6805C16.8358 38.4567 16.8358 38.1881 16.8806 37.9642C17.597 38.2776 18.3134 38.5462 19.0298 38.7701C19.3433 38.8596 19.9253 39.0387 19.7462 39.5312C19.5224 40.1132 19.1194 39.9788 18.7164 39.6207C18.6268 39.5312 18.3582 39.5759 18.1791 39.5312C18.0895 39.3073 17.9104 39.3073 17.7313 39.2625C17.597 38.9492 17.3283 38.8148 17.0149 38.7701C16.9253 38.7253 16.8806 38.7253 16.791 38.6805Z" fill="#ECDB9F"/>
<path d="M21.2236 34.6065C22.5221 33.8007 22.2983 32.2785 22.8356 31.1593C23.2386 31.3831 23.2386 31.7413 23.0595 32.0995C22.8804 32.4128 22.7908 32.7262 22.8356 33.0396C23.0147 34.2931 22.343 34.6961 21.2236 34.6065Z" fill="#C9650D"/>
<path d="M22.1193 25.787C22.1193 25.9213 22.1193 26.1004 22.1193 26.2347C21.2238 26.2347 20.3282 26.2347 19.4327 26.2347C19.3432 26.0556 19.2536 25.9213 19.1641 25.7422C19.1641 25.6974 19.2088 25.6527 19.2088 25.6079C19.4775 25.6079 19.7909 25.6079 20.0596 25.6079C20.5521 25.6079 20.9999 25.6079 21.4924 25.6079C21.7163 25.6527 21.9402 25.7422 22.1193 25.787Z" fill="#C9650D"/>
<path d="M21.2686 39.5759C21.6268 39.2178 21.985 39.3073 22.388 39.4864C22.0297 39.755 21.6715 39.755 21.2686 39.5759Z" fill="#E19A04"/>
<path d="M19.164 25.7422C19.2535 25.9213 19.3431 26.0556 19.4326 26.2346C19.164 26.2346 18.8505 26.2346 18.5819 26.2346C18.5819 26.1003 18.5371 25.966 18.5371 25.8765C18.761 25.8317 18.9849 25.787 19.164 25.7422Z" fill="#D85B0C"/>
<path d="M18.5823 25.8318C18.5823 25.9661 18.6271 26.1004 18.6271 26.1899C18.4032 26.1004 18.4032 26.0109 18.5823 25.8318Z" fill="#D87B08"/>
<path d="M21.5373 25.608C21.0448 25.608 20.597 25.608 20.1045 25.608C20.5523 25.3393 21.0448 25.3393 21.5373 25.608Z" fill="#D85B0C"/>
<path d="M14.2839 35.4572C14.5078 35.7258 14.6422 35.9944 14.6869 36.3078C14.0153 36.3973 13.6123 36.1735 13.6123 35.4572C13.8362 35.4572 14.0601 35.4572 14.2839 35.4572Z" fill="#E7AC0E"/>
<path d="M14.1048 31.6517C14.1048 32.0099 14.1048 32.3233 14.1048 32.6814C13.8362 32.7262 13.5675 32.6814 13.5228 32.3233C13.4332 31.8756 13.7914 31.786 14.1048 31.6517Z" fill="#EAB927"/>
<path d="M14.1941 33.0396C14.1493 33.1739 14.1045 33.3529 14.1045 33.4872C14.0597 33.3082 14.0149 33.1291 14.1941 33.0396Z" fill="#EAB927"/>
<path d="M13.9707 33.6216C13.8811 33.7559 13.7468 33.8902 13.6572 34.0245C13.702 33.8454 13.7916 33.7111 13.9707 33.6216Z" fill="#EAB927"/>
<path d="M17.015 38.77C17.3285 38.8148 17.5971 38.9491 17.7314 39.2625C17.5523 39.2625 17.418 39.3073 17.2389 39.3073C17.1493 39.2177 17.0598 39.1282 17.015 39.0386C16.9702 38.9491 17.015 38.8596 17.015 38.77Z" fill="#D8C899"/>
<path d="M16.9705 39.0387C17.0601 39.1282 17.1496 39.2178 17.1944 39.3073C17.0153 39.3969 16.8362 39.4416 16.6123 39.5312C16.7914 39.3521 16.881 39.173 16.9705 39.0387Z" fill="#F94613"/>
<path d="M15.135 28.3837C15.135 28.8761 14.8215 29.1447 14.5081 29.4134C14.1051 29.1895 14.2842 28.8761 14.3738 28.5627C14.6424 28.518 14.8663 28.4732 15.135 28.3837Z" fill="#E7AC0E"/>
</g>
<defs>
<clipPath id="clip0">
<rect width="42" height="95" fill="white"/>
</clipPath>
</defs>
</svg>
